<?xml version="1.0" encoding="UTF-8"?>
<svg id="_Íconos" data-name="Íconos" xmlns="http://www.w3.org/2000/svg" xmlns:xlink="http://www.w3.org/1999/xlink" viewBox="0 0 1080 1080">
  <defs>
    <style>
      .cls-1 {
        fill: url(#Degradado_sin_nombre_6);
      }

      .cls-2 {
        fill: url(#Degradado_sin_nombre_11);
      }

      .cls-3 {
        fill: #f4f7f8;
      }

      .cls-4 {
        fill: url(#Degradado_sin_nombre_11-5);
      }

      .cls-5 {
        fill: url(#Degradado_sin_nombre_11-2);
      }

      .cls-6 {
        fill: #201c1e;
      }

      .cls-7 {
        fill: url(#Degradado_sin_nombre_27);
      }

      .cls-8 {
        fill: url(#Degradado_sin_nombre_11-3);
      }

      .cls-9 {
        fill: url(#Degradado_sin_nombre_11-4);
      }
    </style>
    <linearGradient id="Degradado_sin_nombre_6" data-name="Degradado sin nombre 6" x1="362.1" y1="940" x2="362.1" y2="140" gradientUnits="userSpaceOnUse">
      <stop offset="0" stop-color="#035164"/>
      <stop offset="1" stop-color="#009e9a"/>
    </linearGradient>
    <linearGradient id="Degradado_sin_nombre_11" data-name="Degradado sin nombre 11" x1="717.9" y1="620" x2="717.9" y2="940" gradientUnits="userSpaceOnUse">
      <stop offset="0" stop-color="#035164"/>
      <stop offset="1" stop-color="#009e9a"/>
    </linearGradient>
    <linearGradient id="Degradado_sin_nombre_11-2" data-name="Degradado sin nombre 11" x1="962.04" y1="460" x2="962.04" y2="140" gradientTransform="translate(-244.14 600) scale(1 -1)" xlink:href="#Degradado_sin_nombre_11"/>
    <linearGradient id="Degradado_sin_nombre_11-3" data-name="Degradado sin nombre 11" x1="541.74" y1="-2164.32" x2="541.74" y2="-2520.13" gradientTransform="translate(87.21 2882.22)" xlink:href="#Degradado_sin_nombre_11"/>
    <linearGradient id="Degradado_sin_nombre_11-4" data-name="Degradado sin nombre 11" x1="962.04" y1="460" x2="962.04" y2="140" gradientTransform="translate(-244.14 600) scale(1 -1)" xlink:href="#Degradado_sin_nombre_11"/>
    <linearGradient id="Degradado_sin_nombre_11-5" data-name="Degradado sin nombre 11" x1="541.74" y1="-2164.32" x2="541.74" y2="-2520.13" gradientTransform="translate(87.21 2882.22)" xlink:href="#Degradado_sin_nombre_11"/>
    <linearGradient id="Degradado_sin_nombre_27" data-name="Degradado sin nombre 27" x1="540" y1="1080" x2="540" y2="0" gradientUnits="userSpaceOnUse">
      <stop offset="0" stop-color="#201c1e"/>
      <stop offset="1" stop-color="#009e9a"/>
    </linearGradient>
  </defs>
  <g id="_Ícono_1" data-name="Ícono 1">
    <rect class="cls-6" x="0" width="1080" height="1080" rx="200" ry="200"/>
    <g>
      <rect class="cls-1" x="273.14" y="140" width="177.9" height="800"/>
      <rect class="cls-2" x="628.95" y="620" width="177.9" height="320"/>
      <path class="cls-5" d="M628.95,140h9.19c93.12,0,168.71,75.6,168.71,168.71v151.29h-177.9V140h0Z" transform="translate(1435.81 600) rotate(-180)"/>
      <path class="cls-8" d="M708.95,362.1h0v355.81h-160v-195.81c0-88.31,71.69-160,160-160Z" transform="translate(1168.95 -88.95) rotate(90)"/>
    </g>
  </g>
  <g id="_Ícono_2" data-name="Ícono 2">
    <rect class="cls-3" x="0" width="1080" height="1080" rx="200" ry="200"/>
    <g>
      <rect class="cls-1" x="273.14" y="140" width="177.9" height="800"/>
      <rect class="cls-2" x="628.95" y="620" width="177.9" height="320"/>
      <path class="cls-9" d="M628.95,140h9.19c93.12,0,168.71,75.6,168.71,168.71v151.29h-177.9V140h0Z" transform="translate(1435.81 600) rotate(-180)"/>
      <path class="cls-4" d="M708.95,362.1h0v355.81h-160v-195.81c0-88.31,71.69-160,160-160Z" transform="translate(1168.95 -88.95) rotate(90)"/>
    </g>
  </g>
  <g id="_Ícono_3" data-name="Ícono 3">
    <rect class="cls-6" x="0" width="1080" height="1080" rx="200" ry="200"/>
    <g>
      <rect class="cls-3" x="273.14" y="140" width="177.9" height="800"/>
      <rect class="cls-3" x="628.95" y="620" width="177.9" height="320"/>
      <path class="cls-3" d="M628.95,140h9.19c93.12,0,168.71,75.6,168.71,168.71v151.29h-177.9V140h0Z" transform="translate(1435.81 600) rotate(-180)"/>
      <path class="cls-3" d="M708.95,362.1h0v355.81h-160v-195.81c0-88.31,71.69-160,160-160Z" transform="translate(1168.95 -88.95) rotate(90)"/>
    </g>
  </g>
  <g id="_Ícono_4" data-name="Ícono 4">
    <rect class="cls-7" x="0" width="1080" height="1080" rx="200" ry="200"/>
    <g>
      <rect class="cls-3" x="273.14" y="140" width="177.9" height="800"/>
      <rect class="cls-3" x="628.95" y="620" width="177.9" height="320"/>
      <path class="cls-3" d="M628.95,140h9.19c93.12,0,168.71,75.6,168.71,168.71v151.29h-177.9V140h0Z" transform="translate(1435.81 600) rotate(-180)"/>
      <path class="cls-3" d="M708.95,362.1h0v355.81h-160v-195.81c0-88.31,71.69-160,160-160Z" transform="translate(1168.95 -88.95) rotate(90)"/>
    </g>
  </g>
</svg>