<?xml version="1.0" encoding="UTF-8"?>
<svg id="Logotipos" xmlns="http://www.w3.org/2000/svg" xmlns:xlink="http://www.w3.org/1999/xlink" viewBox="0 0 1100 670.98">
  <defs>
    <style>
      .cls-1 {
        fill: url(#Degradado_sin_nombre_6);
      }

      .cls-2 {
        fill: url(#Degradado_sin_nombre_11);
      }

      .cls-3 {
        fill: #f4f7f8;
      }

      .cls-4 {
        fill: url(#Degradado_sin_nombre_11-5);
      }

      .cls-5 {
        fill: url(#Degradado_sin_nombre_11-2);
      }

      .cls-6 {
        fill: url(#Degradado_sin_nombre_11-3);
      }

      .cls-7 {
        fill: url(#Degradado_sin_nombre_11-4);
      }
    </style>
    <linearGradient id="Degradado_sin_nombre_6" data-name="Degradado sin nombre 6" x1="450.23" y1="458.65" x2="450.23" y2="10" gradientUnits="userSpaceOnUse">
      <stop offset="0" stop-color="#035164"/>
      <stop offset="1" stop-color="#009e9a"/>
    </linearGradient>
    <linearGradient id="Degradado_sin_nombre_11" data-name="Degradado sin nombre 11" x1="649.77" y1="279.19" x2="649.77" y2="458.65" gradientUnits="userSpaceOnUse">
      <stop offset="0" stop-color="#035164"/>
      <stop offset="1" stop-color="#009e9a"/>
    </linearGradient>
    <linearGradient id="Degradado_sin_nombre_11-2" data-name="Degradado sin nombre 11" x1="-3381.19" y1="189.46" x2="-3381.19" y2="10" gradientTransform="translate(4030.96 199.46) scale(1 -1)" xlink:href="#Degradado_sin_nombre_11"/>
    <linearGradient id="Degradado_sin_nombre_11-3" data-name="Degradado sin nombre 11" x1="-1765.11" y1="-4623.57" x2="-1765.11" y2="-4823.12" gradientTransform="translate(2364.99 4957.67)" xlink:href="#Degradado_sin_nombre_11"/>
    <linearGradient id="Degradado_sin_nombre_11-4" data-name="Degradado sin nombre 11" x1="-3381.19" y1="189.46" x2="-3381.19" y2="10" gradientTransform="translate(4030.96 199.46) scale(1 -1)" xlink:href="#Degradado_sin_nombre_11"/>
    <linearGradient id="Degradado_sin_nombre_11-5" data-name="Degradado sin nombre 11" x1="-1765.11" y1="-4623.57" x2="-1765.11" y2="-4823.12" gradientTransform="translate(2364.99 4957.67)" xlink:href="#Degradado_sin_nombre_11"/>
  </defs>
  <g id="Completo_T_Negro" data-name="Completo T Negro">
    <g>
      <rect class="cls-1" x="400.34" y="10" width="99.77" height="448.65"/>
      <rect class="cls-2" x="599.89" y="279.19" width="99.77" height="179.46"/>
      <path class="cls-5" d="M599.89,10h5.15c52.22,0,94.62,42.4,94.62,94.62v84.84h-99.77V10h0Z" transform="translate(1299.54 199.46) rotate(-180)"/>
      <path class="cls-6" d="M644.75,134.55h0v199.54h-89.73v-109.81c0-49.52,40.21-89.73,89.73-89.73Z" transform="translate(834.21 -365.56) rotate(90)"/>
    </g>
    <g>
      <path d="M10,533.76h34.45v50.71h34.45v-50.71h34.45v127.22h-34.45v-46.34h-34.45v46.34H10v-127.22Z"/>
      <path d="M209.37,640.44h-40.83l-6.38,20.55h-35.67l46.17-127.22h32.53l46.17,127.22h-35.59l-6.38-20.55ZM200.45,611.84l-11.37-36.55h-.35l-11.37,36.55h23.08Z"/>
      <path d="M298.5,659.11c-5.38-1.25-10.47-3.05-15.26-5.4-4.79-2.35-9.18-5.34-13.17-8.97-3.99-3.63-7.42-7.73-10.28-12.32-2.86-4.59-5.09-9.84-6.67-15.76-1.59-5.92-2.38-12.25-2.38-19,0-5.89.65-11.56,1.95-17,1.3-5.44,3.17-10.52,5.61-15.26,2.44-4.73,5.52-9.04,9.26-12.92,3.74-3.88,7.95-7.21,12.62-9.99,4.67-2.78,10-4.93,15.98-6.46,5.98-1.53,12.34-2.29,19.08-2.29,9.01,0,18,1.98,26.98,5.95,8.98,3.97,16.78,9.94,23.41,17.93l-24.22,20.74c-1.42-1.59-2.99-3.07-4.72-4.46-1.73-1.39-3.7-2.73-5.91-4.04-2.21-1.3-4.66-2.34-7.35-3.1-2.69-.77-5.42-1.15-8.2-1.15-3.06,0-6.03.43-8.92,1.27-2.89.85-5.6,2.17-8.12,3.95-2.52,1.78-4.72,3.94-6.59,6.46-1.87,2.52-3.34,5.52-4.42,9.01-1.08,3.48-1.61,7.27-1.61,11.35s.68,8.19,2.04,11.98c1.36,3.8,3.29,7.14,5.78,10.03,2.49,2.89,5.62,5.18,9.39,6.88,3.77,1.7,7.92,2.55,12.45,2.55,4.82,0,9.62-1.16,14.41-3.48,4.79-2.32,8.71-5.35,11.77-9.09l24.22,20.82c-5.72,7.03-12.95,12.72-21.67,17.08-8.72,4.36-18.3,6.54-28.73,6.54-5.78,0-11.36-.62-16.74-1.87Z"/>
      <path d="M420.64,615.25l-7.26,8.83v36.9h-33.84v-127.22h33.84v42.84h.35l30.95-42.84h43.02l-44.77,54.39,46.6,72.84h-41.8l-27.02-45.73h-.09Z"/>
      <path d="M581.64,640.44h-40.83l-6.38,20.55h-35.67l46.17-127.22h32.53l46.17,127.22h-35.59l-6.38-20.55ZM572.72,611.84l-11.37-36.55h-.35l-11.37,36.55h23.08Z"/>
      <path d="M645.83,564.1h-32.35v-30.34h98.37v30.34h-32.18v96.88h-33.84v-96.88Z"/>
      <path d="M726.41,533.76h34.45v50.71h34.45v-50.71h34.45v127.22h-34.45v-46.34h-34.45v46.34h-34.45v-127.22Z"/>
      <path d="M878.23,656.31c-7.99-3.12-14.79-7.45-20.4-13-5.61-5.55-9.99-12.27-13.13-20.14-3.14-7.88-4.72-16.46-4.72-25.75s1.57-17.89,4.72-25.79c3.14-7.9,7.52-14.63,13.13-20.18,5.61-5.55,12.41-9.89,20.4-13,7.99-3.12,16.69-4.67,26.09-4.67s17.9,1.54,25.84,4.63c7.93,3.09,14.7,7.39,20.31,12.92,5.61,5.52,10,12.25,13.17,20.18,3.17,7.93,4.76,16.57,4.76,25.92s-1.59,17.97-4.76,25.88c-3.17,7.9-7.56,14.62-13.17,20.14-5.61,5.52-12.38,9.83-20.31,12.92-7.93,3.09-16.54,4.63-25.84,4.63s-18.1-1.56-26.09-4.67ZM919.66,625.76c4.56-2.92,8.07-6.86,10.54-11.81,2.46-4.96,3.7-10.47,3.7-16.53s-1.23-11.57-3.7-16.53c-2.47-4.96-5.98-8.9-10.54-11.81-4.56-2.92-9.7-4.38-15.42-4.38s-10.85,1.44-15.38,4.33-8.06,6.83-10.58,11.81c-2.52,4.99-3.78,10.51-3.78,16.57s1.26,11.57,3.78,16.53c2.52,4.96,6.06,8.9,10.62,11.81,4.56,2.92,9.67,4.38,15.34,4.38s10.86-1.46,15.42-4.38Z"/>
      <path d="M1090,533.76v127.22h-35.33l-41.71-69.6h-.44v69.6h-33.84v-127.22h34.28l42.49,71.7h.44v-71.7h34.1Z"/>
    </g>
  </g>
  <g id="Completo_T_Blanco" data-name="Completo T Blanco">
    <g>
      <rect class="cls-1" x="400.34" y="10" width="99.77" height="448.65"/>
      <rect class="cls-2" x="599.89" y="279.19" width="99.77" height="179.46"/>
      <path class="cls-7" d="M599.89,10h5.15c52.22,0,94.62,42.4,94.62,94.62v84.84h-99.77V10h0Z" transform="translate(1299.54 199.46) rotate(-180)"/>
      <path class="cls-4" d="M644.75,134.55h0v199.54h-89.73v-109.81c0-49.52,40.21-89.73,89.73-89.73Z" transform="translate(834.21 -365.56) rotate(90)"/>
    </g>
    <g>
      <path class="cls-3" d="M10,533.76h34.45v50.71h34.45v-50.71h34.45v127.22h-34.45v-46.34h-34.45v46.34H10v-127.22Z"/>
      <path class="cls-3" d="M209.37,640.44h-40.83l-6.38,20.55h-35.67l46.17-127.22h32.53l46.17,127.22h-35.59l-6.38-20.55ZM200.45,611.84l-11.37-36.55h-.35l-11.37,36.55h23.08Z"/>
      <path class="cls-3" d="M298.5,659.11c-5.38-1.25-10.47-3.05-15.26-5.4-4.79-2.35-9.18-5.34-13.17-8.97-3.99-3.63-7.42-7.73-10.28-12.32-2.86-4.59-5.09-9.84-6.67-15.76-1.59-5.92-2.38-12.25-2.38-19,0-5.89.65-11.56,1.95-17,1.3-5.44,3.17-10.52,5.61-15.26,2.44-4.73,5.52-9.04,9.26-12.92,3.74-3.88,7.95-7.21,12.62-9.99,4.67-2.78,10-4.93,15.98-6.46,5.98-1.53,12.34-2.29,19.08-2.29,9.01,0,18,1.98,26.98,5.95,8.98,3.97,16.78,9.94,23.41,17.93l-24.22,20.74c-1.42-1.59-2.99-3.07-4.72-4.46-1.73-1.39-3.7-2.73-5.91-4.04-2.21-1.3-4.66-2.34-7.35-3.1-2.69-.77-5.42-1.15-8.2-1.15-3.06,0-6.03.43-8.92,1.27-2.89.85-5.6,2.17-8.12,3.95-2.52,1.78-4.72,3.94-6.59,6.46-1.87,2.52-3.34,5.52-4.42,9.01-1.08,3.48-1.61,7.27-1.61,11.35s.68,8.19,2.04,11.98c1.36,3.8,3.29,7.14,5.78,10.03,2.49,2.89,5.62,5.18,9.39,6.88,3.77,1.7,7.92,2.55,12.45,2.55,4.82,0,9.62-1.16,14.41-3.48,4.79-2.32,8.71-5.35,11.77-9.09l24.22,20.82c-5.72,7.03-12.95,12.72-21.67,17.08-8.72,4.36-18.3,6.54-28.73,6.54-5.78,0-11.36-.62-16.74-1.87Z"/>
      <path class="cls-3" d="M420.64,615.25l-7.26,8.83v36.9h-33.84v-127.22h33.84v42.84h.35l30.95-42.84h43.02l-44.77,54.39,46.6,72.84h-41.8l-27.02-45.73h-.09Z"/>
      <path class="cls-3" d="M581.64,640.44h-40.83l-6.38,20.55h-35.67l46.17-127.22h32.53l46.17,127.22h-35.59l-6.38-20.55ZM572.72,611.84l-11.37-36.55h-.35l-11.37,36.55h23.08Z"/>
      <path class="cls-3" d="M645.83,564.1h-32.35v-30.34h98.37v30.34h-32.18v96.88h-33.84v-96.88Z"/>
      <path class="cls-3" d="M726.41,533.76h34.45v50.71h34.45v-50.71h34.45v127.22h-34.45v-46.34h-34.45v46.34h-34.45v-127.22Z"/>
      <path class="cls-3" d="M878.23,656.31c-7.99-3.12-14.79-7.45-20.4-13-5.61-5.55-9.99-12.27-13.13-20.14-3.14-7.88-4.72-16.46-4.72-25.75s1.57-17.89,4.72-25.79c3.14-7.9,7.52-14.63,13.13-20.18,5.61-5.55,12.41-9.89,20.4-13,7.99-3.12,16.69-4.67,26.09-4.67s17.9,1.54,25.84,4.63c7.93,3.09,14.7,7.39,20.31,12.92,5.61,5.52,10,12.25,13.17,20.18,3.17,7.93,4.76,16.57,4.76,25.92s-1.59,17.97-4.76,25.88c-3.17,7.9-7.56,14.62-13.17,20.14-5.61,5.52-12.38,9.83-20.31,12.92-7.93,3.09-16.54,4.63-25.84,4.63s-18.1-1.56-26.09-4.67ZM919.66,625.76c4.56-2.92,8.07-6.86,10.54-11.81,2.46-4.96,3.7-10.47,3.7-16.53s-1.23-11.57-3.7-16.53c-2.47-4.96-5.98-8.9-10.54-11.81-4.56-2.92-9.7-4.38-15.42-4.38s-10.85,1.44-15.38,4.33-8.06,6.83-10.58,11.81c-2.52,4.99-3.78,10.51-3.78,16.57s1.26,11.57,3.78,16.53c2.52,4.96,6.06,8.9,10.62,11.81,4.56,2.92,9.67,4.38,15.34,4.38s10.86-1.46,15.42-4.38Z"/>
      <path class="cls-3" d="M1090,533.76v127.22h-35.33l-41.71-69.6h-.44v69.6h-33.84v-127.22h34.28l42.49,71.7h.44v-71.7h34.1Z"/>
    </g>
  </g>
</svg>